<svg xmlns="http://www.w3.org/2000/svg" version="1.1" xmlns:xlink="http://www.w3.org/1999/xlink" xmlns:svgjs="http://svgjs.dev/svgjs" width="1500" height="1500" viewBox="0 0 1500 1500"><rect width="1500" height="1500" fill="#000000"></rect><g transform="matrix(0.6666666666666666,0,0,0.6666666666666666,249.39393939393938,519.8860912462047)"><svg viewBox="0 0 396 182" data-background-color="#e0ded5" preserveAspectRatio="xMidYMid meet" height="689" width="1500" xmlns="http://www.w3.org/2000/svg" xmlns:xlink="http://www.w3.org/1999/xlink"><g id="tight-bounds" transform="matrix(1,0,0,1,0.2400000000000091,0.17720912886230167)"><svg viewBox="0 0 395.52 181.6455817422754" height="181.6455817422754" width="395.52"><g><svg viewBox="0 0 397.4975999999999 182.55380965098675" height="181.6455817422754" width="395.52"><g><rect width="397.4975999999999" height="3.80630262289562" x="0" y="102.10862808141323" fill="#ffffff" opacity="1" stroke-width="0" stroke="transparent" fill-opacity="1" class="rect-yte-0" data-fill-palette-color="secondary" rx="1%" id="yte-0" data-palette-color="#243cfc"></rect></g><g transform="matrix(1,0,0,1,0.9887999999999693,115.87907369618219)"><svg viewBox="0 0 395.52 66.67473595480455" height="66.67473595480455" width="395.52"><g id="textblocktransform"><svg viewBox="0 0 395.52 66.67473595480455" height="66.67473595480455" width="395.52" id="textblock"><g><svg viewBox="0 0 395.52 42.2073526824978" height="42.2073526824978" width="395.52"><g transform="matrix(1,0,0,1,0,0)"><svg width="395.52" viewBox="1.3 -35.7 341.08 36.400000000000006" height="42.2073526824978" data-palette-color="#243cfc"><path d="M4.95 0L1.3 0 14.75-35 17.85-35 31.3 0 27.65 0 21.45-16.4 10.1-16.4 4.95 0ZM15.4-32.4L15.1-32.4 10.45-17.6 21-17.6 15.4-32.4ZM37.9-14L37.9-35 41.3-35 41.3-13.9Q41.3-7.85 44.27-4.48 47.25-1.1 52.65-1.1L52.65-1.1Q56.05-1.1 58.57-2.43 61.1-3.75 62.47-6.1 63.85-8.45 63.75-11.5L63.75-11.5 62.9-35 66.3-35 65.45-11.5Q65.25-5.5 61.87-2.4 58.5 0.7 52.25 0.7L52.25 0.7Q45.5 0.7 41.7-3.23 37.9-7.15 37.9-14L37.9-14ZM105.9-4.3L106.19-4.3 105.9-1.25Q104.5-0.65 102.5-0.2 100.5 0.25 98.45 0.48 96.4 0.7 94.8 0.7L94.8 0.7Q90.75 0.7 87.3-0.68 83.84-2.05 81.27-4.5 78.7-6.95 77.25-10.28 75.8-13.6 75.8-17.5L75.8-17.5Q75.8-21.4 77.25-24.73 78.7-28.05 81.27-30.5 83.84-32.95 87.3-34.33 90.75-35.7 94.8-35.7L94.8-35.7Q96.45-35.7 98.5-35.45 100.55-35.2 102.5-34.77 104.44-34.35 105.8-33.8L105.8-33.8 105.55-31 105.25-31Q103.4-32.7 100.59-33.6 97.8-34.5 94.8-34.5L94.8-34.5Q90.3-34.5 86.87-32.38 83.45-30.25 81.52-26.43 79.59-22.6 79.59-17.5L79.59-17.5Q79.59-12.35 81.52-8.55 83.45-4.75 86.84-2.63 90.25-0.5 94.8-0.5L94.8-0.5Q98.2-0.5 101.12-1.6 104.05-2.7 105.9-4.3L105.9-4.3ZM127.59 0L124.19 0 124.19-34Q123.44-34 121.09-33.7L121.09-33.7 111.29-32.45 111.29-35 140.49-35 140.49-32.45 130.69-33.7Q128.34-34 127.59-34L127.59-34 127.59 0ZM151.99 0L148.59 0 148.59-35 151.99-35 151.99 0ZM162.49-17.5L162.49-17.5Q162.49-21.35 163.86-24.68 165.24-28 167.71-30.48 170.19-32.95 173.51-34.33 176.84-35.7 180.69-35.7L180.69-35.7Q184.54-35.7 187.86-34.33 191.19-32.95 193.66-30.48 196.14-28 197.51-24.68 198.89-21.35 198.89-17.5L198.89-17.5Q198.89-13.65 197.51-10.33 196.14-7 193.66-4.53 191.19-2.05 187.86-0.68 184.54 0.7 180.69 0.7L180.69 0.7Q176.84 0.7 173.51-0.68 170.19-2.05 167.71-4.53 165.24-7 163.86-10.33 162.49-13.65 162.49-17.5ZM166.29-17.5L166.29-17.5Q166.29-12.4 168.09-8.58 169.89-4.75 173.14-2.63 176.39-0.5 180.69-0.5L180.69-0.5Q184.99-0.5 188.24-2.63 191.49-4.75 193.29-8.6 195.09-12.45 195.09-17.5L195.09-17.5Q195.09-22.55 193.29-26.38 191.49-30.2 188.24-32.35 184.99-34.5 180.69-34.5L180.69-34.5Q176.39-34.5 173.16-32.38 169.94-30.25 168.11-26.43 166.29-22.6 166.29-17.5ZM212.04 0L208.64 0 209.89-35.7 210.49-35.7 235.64-5.3 235.94-5.3 234.84-35 238.24-35 236.99 0.7 236.39 0.7 211.24-29.7 210.94-29.7 212.04 0ZM248.93 0L245.28 0 258.73-35 261.83-35 275.28 0 271.63 0 265.43-16.4 254.08-16.4 248.93 0ZM259.38-32.4L259.08-32.4 254.43-17.6 264.98-17.6 259.38-32.4ZM283.38 0L283.38-35 290.08-35Q295.38-35 298.31-32.77 301.23-30.55 301.23-26.55L301.23-26.55Q301.23-23.45 299.4-21.4 297.58-19.35 294.13-18.65L294.13-18.65 294.13-18.35Q297.43-17.7 299.53-15.25 301.63-12.8 302.68-9.2L302.68-9.2Q303.63-5.9 304.56-4.08 305.48-2.25 306.61-1.45 307.73-0.65 309.28-0.3L309.28-0.3 309.28 0 307.23 0Q305.03 0 303.61-0.8 302.18-1.6 301.18-3.5 300.18-5.4 299.28-8.75L299.28-8.75Q297.83-13.9 295.43-16.05 293.03-18.2 289.58-18.2L289.58-18.2 289.28-18.2 289.28-19.1 289.58-19.1Q297.63-19.1 297.63-26.5L297.63-26.5Q297.63-33.8 290.08-33.8L290.08-33.8 286.78-33.8 286.78 0 283.38 0ZM342.08-4.3L342.38-4.3 342.08-1.25Q340.68-0.65 338.68-0.2 336.68 0.25 334.63 0.48 332.58 0.7 330.98 0.7L330.98 0.7Q326.93 0.7 323.48-0.68 320.03-2.05 317.45-4.5 314.88-6.95 313.43-10.28 311.98-13.6 311.98-17.5L311.98-17.5Q311.98-21.4 313.43-24.73 314.88-28.05 317.45-30.5 320.03-32.95 323.48-34.33 326.93-35.7 330.98-35.7L330.98-35.7Q332.63-35.7 334.68-35.45 336.73-35.2 338.68-34.77 340.63-34.35 341.98-33.8L341.98-33.8 341.73-31 341.43-31Q339.58-32.7 336.78-33.6 333.98-34.5 330.98-34.5L330.98-34.5Q326.48-34.5 323.05-32.38 319.63-30.25 317.7-26.43 315.78-22.6 315.78-17.5L315.78-17.5Q315.78-12.35 317.7-8.55 319.63-4.75 323.03-2.63 326.43-0.5 330.98-0.5L330.98-0.5Q334.38-0.5 337.3-1.6 340.23-2.7 342.08-4.3L342.08-4.3Z" opacity="1" transform="matrix(1,0,0,1,0,0)" fill="#ffffff" class="wordmark-text-0" data-fill-palette-color="primary" id="text-0"></path></svg></g></svg></g><g transform="matrix(1,0,0,1,0,52.17149567437115)"><svg viewBox="0 0 395.52 14.503240280433397" height="14.503240280433397" width="395.52"><g transform="matrix(1,0,0,1,0,0)"><svg width="395.52" viewBox="6.5 -35.7 1176.64 43.150000000000006" height="14.503240280433397" data-palette-color="#243cfc"><path d="M9.9 0L6.5 0 6.5-35 9.9-35 9.9 0ZM25.55 0L22.15 0 23.4-35.7 24-35.7 49.15-5.3 49.45-5.3 48.35-35 51.75-35 50.5 0.7 49.9 0.7 24.75-29.7 24.45-29.7 25.55 0ZM66.65 0L63.25 0 64.5-35.7 65.09-35.7 90.25-5.3 90.55-5.3 89.45-35 92.84-35 91.59 0.7 91 0.7 65.84-29.7 65.55-29.7 66.65 0ZM102.59-17.5L102.59-17.5Q102.59-21.35 103.97-24.68 105.34-28 107.82-30.48 110.29-32.95 113.62-34.33 116.94-35.7 120.79-35.7L120.79-35.7Q124.64-35.7 127.97-34.33 131.29-32.95 133.77-30.48 136.24-28 137.62-24.68 138.99-21.35 138.99-17.5L138.99-17.5Q138.99-13.65 137.62-10.33 136.24-7 133.77-4.53 131.29-2.05 127.97-0.68 124.64 0.7 120.79 0.7L120.79 0.7Q116.94 0.7 113.62-0.68 110.29-2.05 107.82-4.53 105.34-7 103.97-10.33 102.59-13.65 102.59-17.5ZM106.39-17.5L106.39-17.5Q106.39-12.4 108.19-8.58 109.99-4.75 113.24-2.63 116.49-0.5 120.79-0.5L120.79-0.5Q125.09-0.5 128.34-2.63 131.59-4.75 133.39-8.6 135.19-12.45 135.19-17.5L135.19-17.5Q135.19-22.55 133.39-26.38 131.59-30.2 128.34-32.35 125.09-34.5 120.79-34.5L120.79-34.5Q116.49-34.5 113.27-32.38 110.04-30.25 108.22-26.43 106.39-22.6 106.39-17.5ZM159.99 0.7L144.09-35 147.84-35 161.49-3.9 161.79-3.9 173.24-35 176.99-35 161.09 0.7 159.99 0.7ZM180.49 0L176.84 0 190.29-35 193.39-35 206.84 0 203.19 0 196.99-16.4 185.64-16.4 180.49 0ZM190.94-32.4L190.64-32.4 185.99-17.6 196.54-17.6 190.94-32.4ZM223.34 0L219.94 0 219.94-34Q219.19-34 216.84-33.7L216.84-33.7 207.04-32.45 207.04-35 236.24-35 236.24-32.45 226.44-33.7Q224.09-34 223.34-34L223.34-34 223.34 0ZM247.73 0L244.33 0 244.33-35 247.73-35 247.73 0ZM271.73 0.7L255.83-35 259.58-35 273.23-3.9 273.53-3.9 284.98-35 288.73-35 272.83 0.7 271.73 0.7ZM311.93 0L296.53 0 296.53-35 311.78-35 311.78-32.55 303.03-33.7Q300.73-34 299.93-34L299.93-34 299.93-18.75Q300.58-18.75 303.03-18.9L303.03-18.9 311.23-19.4 311.23-17.1 303.03-17.6Q300.58-17.75 299.93-17.75L299.93-17.75 299.93-1Q300.83-1 303.08-1.3L303.08-1.3 311.93-2.45 311.93 0ZM334.37 0L330.72 0 344.17-35 347.27-35 360.72 0 357.07 0 350.87-16.4 339.52-16.4 334.37 0ZM344.82-32.4L344.52-32.4 339.87-17.6 350.42-17.6 344.82-32.4ZM367.32-14L367.32-35 370.72-35 370.72-13.9Q370.72-7.85 373.69-4.48 376.67-1.1 382.07-1.1L382.07-1.1Q385.47-1.1 388-2.43 390.52-3.75 391.89-6.1 393.27-8.45 393.17-11.5L393.17-11.5 392.32-35 395.72-35 394.87-11.5Q394.67-5.5 391.3-2.4 387.92 0.7 381.67 0.7L381.67 0.7Q374.92 0.7 371.12-3.23 367.32-7.15 367.32-14L367.32-14ZM435.32-4.3L435.62-4.3 435.32-1.25Q433.92-0.65 431.92-0.2 429.92 0.25 427.87 0.48 425.82 0.7 424.22 0.7L424.22 0.7Q420.17 0.7 416.72-0.68 413.27-2.05 410.69-4.5 408.12-6.95 406.67-10.28 405.22-13.6 405.22-17.5L405.22-17.5Q405.22-21.4 406.67-24.73 408.12-28.05 410.69-30.5 413.27-32.95 416.72-34.33 420.17-35.7 424.22-35.7L424.22-35.7Q425.87-35.7 427.92-35.45 429.97-35.2 431.92-34.77 433.87-34.35 435.22-33.8L435.22-33.8 434.97-31 434.67-31Q432.82-32.7 430.02-33.6 427.22-34.5 424.22-34.5L424.22-34.5Q419.72-34.5 416.29-32.38 412.87-30.25 410.94-26.43 409.02-22.6 409.02-17.5L409.02-17.5Q409.02-12.35 410.94-8.55 412.87-4.75 416.27-2.63 419.67-0.5 424.22-0.5L424.22-0.5Q427.62-0.5 430.54-1.6 433.47-2.7 435.32-4.3L435.32-4.3ZM457.01 0L453.62 0 453.62-34Q452.87-34 450.51-33.7L450.51-33.7 440.72-32.45 440.72-35 469.92-35 469.92-32.45 460.12-33.7Q457.76-34 457.01-34L457.01-34 457.01 0ZM481.41 0L478.01 0 478.01-35 481.41-35 481.41 0ZM491.91-17.5L491.91-17.5Q491.91-21.35 493.28-24.68 494.66-28 497.13-30.48 499.61-32.95 502.93-34.33 506.26-35.7 510.11-35.7L510.11-35.7Q513.96-35.7 517.28-34.33 520.61-32.95 523.08-30.48 525.56-28 526.93-24.68 528.31-21.35 528.31-17.5L528.31-17.5Q528.31-13.65 526.93-10.33 525.56-7 523.08-4.53 520.61-2.05 517.28-0.68 513.96 0.7 510.11 0.7L510.11 0.7Q506.26 0.7 502.93-0.68 499.61-2.05 497.13-4.53 494.66-7 493.28-10.33 491.91-13.65 491.91-17.5ZM495.71-17.5L495.71-17.5Q495.71-12.4 497.51-8.58 499.31-4.75 502.56-2.63 505.81-0.5 510.11-0.5L510.11-0.5Q514.41-0.5 517.66-2.63 520.91-4.75 522.71-8.6 524.51-12.45 524.51-17.5L524.51-17.5Q524.51-22.55 522.71-26.38 520.91-30.2 517.66-32.35 514.41-34.5 510.11-34.5L510.11-34.5Q505.81-34.5 502.58-32.38 499.36-30.25 497.53-26.43 495.71-22.6 495.71-17.5ZM541.46 0L538.06 0 539.31-35.7 539.91-35.7 565.06-5.3 565.36-5.3 564.26-35 567.66-35 566.41 0.7 565.81 0.7 540.66-29.7 540.36-29.7 541.46 0ZM576.85-1.1L576.85-1.1 577.15-4.1 577.45-4.1Q579.4-2.4 581.85-1.45 584.3-0.5 586.7-0.5L586.7-0.5Q590.1-0.5 592.2-2.38 594.3-4.25 594.3-7.4L594.3-7.4Q594.3-9.15 593.53-10.65 592.75-12.15 590.98-13.7 589.2-15.25 586.1-17.05L586.1-17.05Q583.95-18.3 582-19.68 580.05-21.05 578.8-22.88 577.55-24.7 577.55-27.25L577.55-27.25Q577.55-31.05 580.3-33.38 583.05-35.7 587.55-35.7L587.55-35.7Q589.55-35.7 591.85-35.27 594.15-34.85 595.4-34.2L595.4-34.2 595.15-31.4 594.85-31.4Q592-34.5 587.55-34.5L587.55-34.5Q584.35-34.5 582.4-32.88 580.45-31.25 580.45-28.5L580.45-28.5Q580.45-26.45 581.53-24.98 582.6-23.5 584.3-22.33 586-21.15 587.95-20.05L587.95-20.05Q590.2-18.75 592.33-17.3 594.45-15.85 595.83-13.83 597.2-11.8 597.2-8.75L597.2-8.75Q597.2-5.95 595.9-3.83 594.6-1.7 592.23-0.5 589.85 0.7 586.7 0.7L586.7 0.7Q584.7 0.7 582 0.2 579.3-0.3 576.85-1.1ZM603.8-2.1L603.8-2.1Q603.8-3.25 604.55-3.98 605.3-4.7 606.5-4.7L606.5-4.7Q607.9-4.7 608.63-3.68 609.35-2.65 609.35-0.75L609.35-0.75Q609.35 1.7 608.13 3.83 606.9 5.95 604.7 7.45L604.7 7.45 604.2 6.7Q607.65 4.1 607.85-0.6L607.85-0.6Q607.25 0.35 606.1 0.35L606.1 0.35Q605.05 0.35 604.43-0.35 603.8-1.05 603.8-2.1ZM636.65 0L633.25 0 633.25-35 636.65-35 636.65 0ZM652.29 0L648.89 0 650.14-35.7 650.74-35.7 675.89-5.3 676.19-5.3 675.09-35 678.49-35 677.24 0.7 676.64 0.7 651.49-29.7 651.19-29.7 652.29 0ZM694.14 0L690.74 0 690.74-35 705.44-35 705.44-32.55 697.14-33.7Q694.89-34 694.14-34L694.14-34 694.14-18.35Q694.94-18.35 697.24-18.5L697.24-18.5 704.89-19 704.89-16.7 697.24-17.2Q694.94-17.35 694.14-17.35L694.14-17.35 694.14 0ZM718.59 0L715.19 0 715.19-35 718.59-35 718.59 0ZM734.24 0L730.84 0 732.09-35.7 732.69-35.7 757.84-5.3 758.14-5.3 757.04-35 760.44-35 759.19 0.7 758.59 0.7 733.44-29.7 733.14-29.7 734.24 0ZM776.08 0L772.68 0 772.68-35 776.08-35 776.08 0ZM800.48 0L797.08 0 797.08-34Q796.33-34 793.98-33.7L793.98-33.7 784.18-32.45 784.18-35 813.38-35 813.38-32.45 803.58-33.7Q801.23-34 800.48-34L800.48-34 800.48 0ZM836.88 0L821.48 0 821.48-35 836.73-35 836.73-32.55 827.98-33.7Q825.68-34 824.88-34L824.88-34 824.88-18.75Q825.53-18.75 827.98-18.9L827.98-18.9 836.18-19.4 836.18-17.1 827.98-17.6Q825.53-17.75 824.88-17.75L824.88-17.75 824.88-1Q825.78-1 828.03-1.3L828.03-1.3 836.88-2.45 836.88 0ZM864.27 0L860.87 0 860.87-35 867.12-35Q873.17-35 876.52-32.43 879.87-29.85 879.87-25.25L879.87-25.25Q879.87-20.65 876.52-18.07 873.17-15.5 867.12-15.5L867.12-15.5 864.27-15.5 864.27 0ZM867.12-33.8L867.12-33.8 864.27-33.8 864.27-16.7 867.12-16.7Q876.27-16.7 876.27-25.25L876.27-25.25Q876.27-33.8 867.12-33.8ZM886.87-17.5L886.87-17.5Q886.87-21.35 888.25-24.68 889.62-28 892.1-30.48 894.57-32.95 897.9-34.33 901.22-35.7 905.07-35.7L905.07-35.7Q908.92-35.7 912.25-34.33 915.57-32.95 918.05-30.48 920.52-28 921.9-24.68 923.27-21.35 923.27-17.5L923.27-17.5Q923.27-13.65 921.9-10.33 920.52-7 918.05-4.53 915.57-2.05 912.25-0.68 908.92 0.7 905.07 0.7L905.07 0.7Q901.22 0.7 897.9-0.68 894.57-2.05 892.1-4.53 889.62-7 888.25-10.33 886.87-13.65 886.87-17.5ZM890.67-17.5L890.67-17.5Q890.67-12.4 892.47-8.58 894.27-4.75 897.52-2.63 900.77-0.5 905.07-0.5L905.07-0.5Q909.37-0.5 912.62-2.63 915.87-4.75 917.67-8.6 919.47-12.45 919.47-17.5L919.47-17.5Q919.47-22.55 917.67-26.38 915.87-30.2 912.62-32.35 909.37-34.5 905.07-34.5L905.07-34.5Q900.77-34.5 897.55-32.38 894.32-30.25 892.5-26.43 890.67-22.6 890.67-17.5ZM930.72-1.1L930.72-1.1 931.02-4.1 931.32-4.1Q933.27-2.4 935.72-1.45 938.17-0.5 940.57-0.5L940.57-0.5Q943.97-0.5 946.07-2.38 948.17-4.25 948.17-7.4L948.17-7.4Q948.17-9.15 947.39-10.65 946.62-12.15 944.84-13.7 943.07-15.25 939.97-17.05L939.97-17.05Q937.82-18.3 935.87-19.68 933.92-21.05 932.67-22.88 931.42-24.7 931.42-27.25L931.42-27.25Q931.42-31.05 934.17-33.38 936.92-35.7 941.42-35.7L941.42-35.7Q943.42-35.7 945.72-35.27 948.02-34.85 949.27-34.2L949.27-34.2 949.02-31.4 948.72-31.4Q945.87-34.5 941.42-34.5L941.42-34.5Q938.22-34.5 936.27-32.88 934.32-31.25 934.32-28.5L934.32-28.5Q934.32-26.45 935.39-24.98 936.47-23.5 938.17-22.33 939.87-21.15 941.82-20.05L941.82-20.05Q944.07-18.75 946.19-17.3 948.32-15.85 949.69-13.83 951.07-11.8 951.07-8.75L951.07-8.75Q951.07-5.95 949.77-3.83 948.47-1.7 946.09-0.5 943.72 0.7 940.57 0.7L940.57 0.7Q938.57 0.7 935.87 0.2 933.17-0.3 930.72-1.1ZM957.87-1.1L957.87-1.1 958.17-4.1 958.47-4.1Q960.42-2.4 962.87-1.45 965.32-0.5 967.72-0.5L967.72-0.5Q971.12-0.5 973.22-2.38 975.32-4.25 975.32-7.4L975.32-7.4Q975.32-9.15 974.54-10.65 973.77-12.15 971.99-13.7 970.22-15.25 967.12-17.05L967.12-17.05Q964.97-18.3 963.02-19.68 961.07-21.05 959.82-22.88 958.57-24.7 958.57-27.25L958.57-27.25Q958.57-31.05 961.32-33.38 964.07-35.7 968.57-35.7L968.57-35.7Q970.57-35.7 972.87-35.27 975.17-34.85 976.42-34.2L976.42-34.2 976.17-31.4 975.87-31.4Q973.02-34.5 968.57-34.5L968.57-34.5Q965.37-34.5 963.42-32.88 961.47-31.25 961.47-28.5L961.47-28.5Q961.47-26.45 962.54-24.98 963.62-23.5 965.32-22.33 967.02-21.15 968.97-20.05L968.97-20.05Q971.22-18.75 973.34-17.3 975.47-15.85 976.84-13.83 978.22-11.8 978.22-8.75L978.22-8.75Q978.22-5.95 976.92-3.83 975.62-1.7 973.24-0.5 970.87 0.7 967.72 0.7L967.72 0.7Q965.72 0.7 963.02 0.2 960.32-0.3 957.87-1.1ZM991.46 0L988.06 0 988.06-35 991.46-35 991.46 0ZM1012.56 0L1004.46 0 1004.46-35 1011.41-35Q1016.81-35 1019.81-32.75 1022.81-30.5 1022.81-26.5L1022.81-26.5Q1022.81-23.55 1021.06-21.48 1019.31-19.4 1016.16-18.65L1016.16-18.65 1016.16-18.35Q1020.46-17.8 1022.89-15.38 1025.31-12.95 1025.31-9.25L1025.31-9.25Q1025.31-4.9 1021.96-2.45 1018.61 0 1012.56 0L1012.56 0ZM1011.46-33.8L1011.46-33.8 1007.86-33.8 1007.86-18.8 1011.41-18.8Q1019.31-18.8 1019.31-26.3L1019.31-26.3Q1019.31-33.8 1011.46-33.8ZM1012.56-17.6L1012.56-17.6 1007.86-17.6 1007.86-1.2 1012.56-1.2Q1021.71-1.2 1021.71-9.4L1021.71-9.4Q1021.71-17.6 1012.56-17.6ZM1038.71 0L1035.31 0 1035.31-35 1038.71-35 1038.71 0ZM1051.71 0L1051.71-35 1055.11-35 1055.11-1Q1056.06-1 1058.11-1.3L1058.11-1.3 1066.41-2.55 1066.41 0 1051.71 0ZM1078.15 0L1074.75 0 1074.75-35 1078.15-35 1078.15 0ZM1102.55 0L1099.15 0 1099.15-34Q1098.4-34 1096.05-33.7L1096.05-33.7 1086.25-32.45 1086.25-35 1115.45-35 1115.45-32.45 1105.65-33.7Q1103.3-34 1102.55-34L1102.55-34 1102.55 0ZM1126.95 0L1123.55 0 1123.55-35 1126.95-35 1126.95 0ZM1155.35 0L1139.95 0 1139.95-35 1155.2-35 1155.2-32.55 1146.45-33.7Q1144.15-34 1143.35-34L1143.35-34 1143.35-18.75Q1144-18.75 1146.45-18.9L1146.45-18.9 1154.65-19.4 1154.65-17.1 1146.45-17.6Q1144-17.75 1143.35-17.75L1143.35-17.75 1143.35-1Q1144.25-1 1146.5-1.3L1146.5-1.3 1155.35-2.45 1155.35 0ZM1162.79-1.1L1162.79-1.1 1163.09-4.1 1163.39-4.1Q1165.34-2.4 1167.79-1.45 1170.24-0.5 1172.64-0.5L1172.64-0.5Q1176.04-0.5 1178.14-2.38 1180.24-4.25 1180.24-7.4L1180.24-7.4Q1180.24-9.15 1179.47-10.65 1178.69-12.15 1176.92-13.7 1175.14-15.25 1172.04-17.05L1172.04-17.05Q1169.89-18.3 1167.94-19.68 1165.99-21.05 1164.74-22.88 1163.49-24.7 1163.49-27.25L1163.49-27.25Q1163.49-31.05 1166.24-33.38 1168.99-35.7 1173.49-35.7L1173.49-35.7Q1175.49-35.7 1177.79-35.27 1180.09-34.85 1181.34-34.2L1181.34-34.2 1181.09-31.4 1180.79-31.4Q1177.94-34.5 1173.49-34.5L1173.49-34.5Q1170.29-34.5 1168.34-32.88 1166.39-31.25 1166.39-28.5L1166.39-28.5Q1166.39-26.45 1167.47-24.98 1168.54-23.5 1170.24-22.33 1171.94-21.15 1173.89-20.05L1173.89-20.05Q1176.14-18.75 1178.27-17.3 1180.39-15.85 1181.77-13.83 1183.14-11.8 1183.14-8.75L1183.14-8.75Q1183.14-5.95 1181.84-3.83 1180.54-1.7 1178.17-0.5 1175.79 0.7 1172.64 0.7L1172.64 0.7Q1170.64 0.7 1167.94 0.2 1165.24-0.3 1162.79-1.1Z" opacity="1" transform="matrix(1,0,0,1,0,0)" fill="#ffffff" class="slogan-text-1" data-fill-palette-color="secondary" id="text-1"></path></svg></g></svg></g></svg></g></svg></g><g transform="matrix(1,0,0,1,142.02015801187156,0)"><svg viewBox="0 0 113.45728397625678 92.14448508953988" height="92.14448508953988" width="113.45728397625678"><g><svg xmlns="http://www.w3.org/2000/svg" xmlns:xlink="http://www.w3.org/1999/xlink" version="1.1" x="8" y="0" viewBox="2 15.900000000000002 507.9927838145768 480.3" enable-background="new 0 0 512 512" xml:space="preserve" height="92.14448508953988" width="97.45728397625678" class="icon-icon-0" data-fill-palette-color="accent" id="icon-0"><g fill="#243cfc" data-fill-palette-color="accent"><path d="M495 396L275.9 176.8 264.3 188.4 246.9 171 281.6 136.3C292.4 145.6 301.6 139.5 304.7 136.3L327.9 113.2C334.3 106.8 334.3 96.4 327.9 90.1L258.5 20.7C252.1 14.3 241.7 14.3 235.4 20.7L212.3 43.8C205.9 50.2 205.9 60.6 212.3 66.9L96.5 182.6C90.3 176.4 79.5 176.4 73.4 182.6L50.3 205.7C41.1 215.8 47.2 225.8 50.3 228.8L119.7 298.2C129.4 307.3 139.8 301.3 142.8 298.2L165.9 275.1C175 265 169 255 165.9 252L200.6 217.3 218 234.7 206.4 246.3 425.6 465.5C453.6 492.5 484.5 476 495 465.5 506.1 454.3 522.3 425.4 495 396M246.9 32.2L316.3 101.6 293.1 124.7 223.7 55.3zM131.2 286.8L61.8 217.4 84.9 194.3 119.6 229 154.3 263.7zM154.4 240.5L108.1 194.2 223.8 78.5 270.1 124.8 235.4 159.5 189.1 205.8zM212.2 205.8L235.3 182.7 252.7 200.1 229.6 223.2zM275.9 200L293.8 217.9 247.5 264.2 229.6 246.3zM259.1 275.8L305.4 229.5 477.7 401.8 431.4 448.1zM483.5 453.9C473.1 464.3 456.3 465.8 443.9 458.8L488.5 414.2C498.8 430.7 489.6 447.7 483.5 453.9" fill="#ffffff" data-fill-palette-color="accent"></path><path d="M182.1 422.5C182.1 409 171.1 397.9 157.5 397.9H42.9C29.4 397.9 18.3 408.9 18.3 422.5V447.1H2V496.2H198.4V447.1H182V422.5zM34.7 422.5C34.7 418 38.4 414.3 42.9 414.3H157.5C162 414.3 165.7 418 165.7 422.5V447.1H34.7zM182.1 479.8H18.4V463.4H182.1z" fill="#ffffff" data-fill-palette-color="accent"></path><rect x="157.7" y="174.4" transform="matrix(-0.7071 -0.7071 0.7071 -0.7071 154.1136 429.0884)" width="16.4" height="16.4" fill="#ffffff" data-fill-palette-color="accent"></rect><rect x="180.9" y="151.3" transform="matrix(0.7071 0.7071 -0.7071 0.7071 168.1476 -86.983)" width="16.4" height="16.4" fill="#ffffff" data-fill-palette-color="accent"></rect><rect x="204" y="128.1" transform="matrix(0.7071 0.7071 -0.7071 0.7071 158.5587 -110.1326)" width="16.4" height="16.4" fill="#ffffff" data-fill-palette-color="accent"></rect></g></svg></g></svg></g><g><rect width="65.4870380118716" height="3.80630262289562" y="87.33818246664427" x="255.47744198812833" fill="#ffffff" data-fill-palette-color="secondary"></rect><rect width="65.4870380118716" height="3.80630262289562" y="87.33818246664427" x="76.53311999999997" fill="#ffffff" data-fill-palette-color="secondary"></rect></g></svg></g><defs></defs></svg><rect width="395.52" height="181.6455817422754" fill="none" stroke="none" visibility="hidden"></rect></g></svg></g></svg>